<svg version="1.1" viewBox="0.0 0.0 100.0 100.0" fill="none" stroke="none" stroke-linecap="square" stroke-miterlimit="10" xmlns:xlink="http://www.w3.org/1999/xlink" xmlns="http://www.w3.org/2000/svg"><clipPath id="p.0"><path d="m0 0l100.0 0l0 100.0l-100.0 0l0 -100.0z" clip-rule="nonzero"/></clipPath><g clip-path="url(#p.0)"><path fill="#000000" fill-opacity="0.0" d="m0 0l100.0 0l0 100.0l-100.0 0z" fill-rule="evenodd"/><path fill="#ffffff" d="m3.3543308 50.0l0 0c0 -25.761692 20.883978 -46.645668 46.645668 -46.645668l0 0c12.371201 0 24.23571 4.91444 32.983467 13.6622c8.747765 8.747761 13.662201 20.612268 13.662201 32.983467l0 0c0 25.761688 -20.88398 46.645668 -46.645668 46.645668l0 0c-25.761692 0 -46.645668 -20.88398 -46.645668 -46.645668z" fill-rule="evenodd"/><path fill="#000000" d="m19.543371 43.067245l21.357855 -2.6255074l9.098774 -19.486357l9.098774 19.486357l21.357853 2.6255074l-15.734505 14.668739l4.1011124 21.109009l-18.823235 -10.42057l-18.82323 10.42057l4.1011047 -21.109009z" fill-rule="evenodd"/><path fill="#000000" d="m13.997694 67.66937l0.5935211 -0.40843964l6.535433 9.496063l-0.5935211 0.40843964zm1.1870432 -0.8168793l1.1870432 -0.81687164l6.535433 9.496063l-1.1870422 0.81687164zm1.7805643 -1.2253113l51.221962 -35.248993l-3.2677155 -4.7480316l17.794678 1.747879l-4.7238083 17.244246l-3.267723 -4.7480316l-51.221962 35.248997z" fill-rule="evenodd"/></g></svg>